# Blender v2.79 (sub 0) OBJ File: 'interior.blend'
# www.blender.org
mtllib interior.mtl
o Cube
v 0.383743 -1.280302 -1.467958
v 0.383743 -1.280302 0.532042
v -1.616257 -1.280302 0.532042
v -1.616257 -1.280302 -1.467959
v 0.383743 6.719698 -1.467958
v 0.383742 6.719698 0.532043
v -1.616258 6.719698 0.532042
v -1.616257 6.719698 -1.467958
v -5.410337 0.000000 0.811564
v -5.410337 0.000000 2.811564
v -7.825877 0.000000 2.811564
v -7.825877 0.000000 0.811563
v -5.410337 7.096869 0.811564
v -5.410338 7.096869 2.811564
v -7.825878 7.096869 2.811563
v -7.825877 7.096869 0.811564
v -2.876281 0.000000 -10.969057
v -2.876281 0.000000 -8.969057
v -7.893248 0.000000 -8.969057
v -7.893248 0.000000 -10.969057
v -2.876281 9.889191 -10.969057
v -2.876282 9.889191 -8.969057
v -7.893249 9.889191 -8.969058
v -7.893248 9.889191 -10.969057
v -5.398765 7.034331 13.848267
v -5.398765 9.915802 13.848267
v -7.398765 9.915802 13.848267
v -7.398765 7.034330 13.848267
v -5.398765 7.034332 -10.820584
v -5.398766 9.915803 -10.820584
v -7.398766 9.915802 -10.820584
v -7.398765 7.034331 -10.820584
v -5.949077 9.901722 1.346641
v -5.949077 7.637876 1.346641
v -5.949076 7.637876 2.765034
v -5.949077 9.901723 2.765033
v 13.589396 9.901722 1.346641
v 13.589396 7.637876 1.346642
v 13.589396 7.637877 2.765035
v 13.589396 9.901723 2.765034
v -5.953903 9.901722 12.396812
v -5.953903 7.637876 12.396812
v -5.953903 7.637876 13.815205
v -5.953903 9.901723 13.815205
v 13.584571 9.901722 12.396812
v 13.584571 7.637876 12.396814
v 13.584571 7.637877 13.815207
v 13.584571 9.901723 13.815206
v 14.369321 0.000000 -10.916230
v -3.840115 0.000000 -10.916230
v 14.369321 9.889191 -10.916230
v -3.840116 9.889191 -10.916231
v -5.949077 9.861175 -10.904305
v -5.949077 9.031751 -10.904305
v -5.949076 9.031751 -9.894526
v -5.949077 9.861176 -9.894527
v 13.589396 9.861175 -10.904305
v 13.589396 9.031751 -10.904305
v 13.589396 9.031751 -9.894526
v 13.589396 9.861176 -9.894526
v -7.383125 0.000000 -10.964935
v -7.383122 0.000000 13.806346
v -7.383125 9.889191 -10.964935
v -7.383123 9.889191 13.806346
v 14.054111 0.000000 -10.969057
v 14.054111 0.000000 14.145266
v -7.433925 0.000000 14.145266
v -7.433924 0.000000 -10.969057
v -5.949077 9.901722 -10.819242
v 13.589396 9.901722 -10.819242
v -5.949077 9.901723 13.860705
v 13.589396 9.901723 13.860706
v 13.573974 0.000000 13.806346
v 13.573972 9.889191 13.806346
v 14.369321 4.205780 -10.916230
v -3.840115 4.205780 -10.916231
v 14.369321 3.308247 -10.916230
v -3.840115 3.308247 -10.916231
v 0.098521 0.000000 -10.916230
v 0.098521 9.889191 -10.916231
v 0.098521 4.205780 -10.916231
v 0.098521 3.308247 -10.916231
v 9.599961 0.000000 -10.916230
v 9.599961 9.889191 -10.916231
v 9.599961 4.205780 -10.916231
v 9.599961 3.308247 -10.916231
v 0.098521 4.205780 -11.732672
v 9.599961 4.205780 -11.732672
v 0.098521 4.084909 -10.916231
v 9.599961 4.084909 -10.916231
v 0.098521 4.084909 -11.732672
v 9.599961 4.084909 -11.732672
v 0.098521 3.429618 -10.916231
v 9.599961 3.429618 -10.916231
v 0.098521 3.429618 -11.732672
v 9.599961 3.429618 -11.732672
v 0.098521 3.308747 -10.916231
v 9.599961 3.308747 -10.916231
v 0.098521 3.308747 -11.732672
v 9.599961 3.308747 -11.732672
v -5.386149 0.216538 -8.985195
v -5.386149 0.216538 0.840603
v -7.825877 0.216538 0.840602
v -7.825877 0.216538 -8.985196
v -5.386149 -0.094486 -8.985195
v -5.386149 -0.094486 0.840603
v -5.212052 0.216538 -8.985195
v -5.212052 0.216538 0.840603
v -5.212052 0.125415 -8.985195
v -5.212052 0.125415 0.840603
v -5.731668 0.125415 -8.985195
v -5.731668 0.125415 0.840603
v 9.599961 4.205780 -10.871193
v 0.098521 4.205780 -10.871193
v 9.599961 4.084909 -10.871193
v 0.098521 4.084909 -10.871193
v 9.490933 3.424174 -10.916231
v -0.010507 3.424174 -10.916231
v 9.490933 3.303303 -10.916231
v -0.010507 3.303303 -10.916231
v 9.491931 4.084909 -10.916231
v 9.491931 4.084909 -11.732672
v 9.491931 3.429618 -10.916231
v 9.491931 3.429618 -11.732672
v 0.276680 4.084909 -10.916231
v 0.276680 4.084909 -11.732672
v 0.276680 3.429618 -10.916231
v 0.276680 3.429618 -11.732672
v 0.098521 4.084909 -10.916231
v 0.098521 3.429618 -10.916231
v 0.276680 4.084909 -10.916231
v 0.276680 3.429618 -10.916231
v 0.098521 4.084909 -10.864326
v 0.098521 3.429618 -10.864326
v 0.276680 4.084909 -10.864326
v 0.276680 3.429618 -10.864326
v 9.599961 4.084909 -10.863405
v 9.599961 3.429618 -10.863405
v 9.491931 4.084909 -10.863405
v 9.491931 3.429618 -10.863405
vt 0.000000 0.000000
vt 0.000000 0.000000
vt 0.000000 0.000000
vt 0.000000 0.000000
vt 0.000000 0.000000
vt 0.000000 0.000000
vt 0.000000 0.000000
vt 0.000000 0.000000
vt 0.000000 0.000000
vt 0.000000 0.000000
vt 0.000000 0.000000
vt 0.000000 0.000000
vt 0.000000 0.000000
vt 0.000000 0.000000
vt 0.000000 0.000000
vt 0.000000 0.000000
vt 0.000000 0.000000
vt 0.000000 0.000000
vt 0.000000 0.000000
vt 0.000000 0.000000
vt 0.000000 0.000000
vt 0.000000 0.000000
vt 0.000000 0.000000
vt 0.000000 0.000000
vt 0.000000 0.000000
vt 0.000000 0.000000
vt 0.000000 0.000000
vt 0.000000 0.000000
vt 0.000000 0.000000
vt 0.000000 0.000000
vt 0.000000 0.000000
vt 0.000000 0.000000
vt 0.000000 0.000000
vt 0.000000 0.000000
vt 0.000000 0.000000
vt 0.000000 0.000000
vt 0.000000 0.000000
vt 0.000000 0.000000
vt 0.000000 0.000000
vt 0.000000 0.000000
vt 0.000000 0.000000
vt 0.000000 0.000000
vt 0.000000 0.000000
vt 0.000000 0.000000
vt 0.000000 0.000000
vt 0.000000 0.000000
vt 0.000000 0.000000
vt 0.000000 0.000000
vt 0.000000 0.000000
vt 0.000000 0.000000
vt 0.000000 0.000000
vt 0.000000 0.000000
vt 0.000000 0.000000
vt 0.000000 0.000000
vt 0.000000 0.000000
vt 0.000000 0.000000
vt 0.000000 0.000000
vt 0.000000 0.000000
vt 0.000000 0.000000
vt 0.000000 0.000000
vt 0.000000 0.000000
vt 0.000000 0.000000
vt 0.000000 0.000000
vt 0.000000 0.000000
vt 0.000000 0.000000
vt 0.000000 0.000000
vt 0.000000 0.000000
vt 0.000000 0.000000
vt 0.000000 0.000000
vt 0.000000 0.000000
vt 0.000000 0.000000
vt 0.000000 0.000000
vt 0.000000 0.000000
vt 0.000000 0.000000
vt 0.000000 0.000000
vt 0.000000 0.000000
vt 0.859940 0.512007
vt 0.065810 0.512007
vt 0.239369 0.438197
vt 0.757845 0.454304
vt -0.000000 0.138511
vt -0.000000 0.138511
vt -0.000000 0.138511
vt -0.000000 0.138511
vt -1.518074 -0.307974
vt -1.517907 -0.239243
vt 2.419934 -0.239243
vt 2.419775 -0.307974
vt 0.000000 0.000000
vt 0.000000 0.000000
vt 0.000000 0.000000
vt 0.000000 0.000000
vt 0.884974 0.361391
vt 0.753516 0.407598
vt 0.234401 0.390829
vt 0.099976 0.310011
vt 0.000000 0.000000
vt 0.000000 0.000000
vt 0.000000 0.000000
vt 0.000000 0.000000
vt 2.418778 0.581213
vt 2.419111 0.511932
vt 2.419111 0.511932
vt 2.418778 0.581213
vt 0.000000 0.000000
vt 0.000000 0.000000
vt 2.419111 0.373421
vt 2.887077 0.375664
vt 2.886744 0.444944
vt 2.418778 0.442701
vt 0.000000 0.000000
vt 0.758247 0.668287
vt 0.108870 0.668287
vt 0.108870 0.507047
vt 0.758247 0.507047
vt 0.000000 0.000000
vt 0.000000 0.000000
vt 0.000000 0.000000
vt 0.000000 0.000000
vt 0.080497 0.488817
vt 0.080618 0.474005
vt 0.929346 0.474005
vt 0.929225 0.488817
vt 0.929225 0.503852
vt 0.080497 0.503855
vt 0.000000 0.000000
vt 0.000000 0.000000
vt 0.000000 0.000000
vt 0.000000 0.000000
vt 0.880336 0.656400
vt 0.080554 0.656400
vt 0.080497 0.642440
vt 0.880279 0.642440
vt -0.000000 0.138511
vt -0.000000 0.138511
vt -0.000000 0.138511
vt -0.000000 0.138511
vt 0.859940 0.512007
vt 0.065810 0.512007
vt 0.880336 0.670433
vt 0.080554 0.670433
vt 0.080497 0.656474
vt 0.880279 0.656474
vt -0.000000 0.138511
vt -0.000000 0.138511
vt -0.000000 0.138511
vt -0.000000 0.138511
vt 0.936650 0.478593
vt 0.114741 0.262065
vt 0.151653 0.427213
vt 0.899739 0.313445
vt -0.000000 0.138511
vt -0.000000 0.138511
vt 0.859940 0.512007
vt 0.884974 0.361391
vt 0.753516 0.407598
vt 0.757845 0.454304
vt 0.884974 0.361391
vt 0.859940 0.512007
vt 0.239369 0.438197
vt 0.065810 0.512007
vt 0.099976 0.310011
vt 0.234401 0.390829
vt 0.000000 0.000000
vt 0.000000 0.000000
vt 0.000000 0.000000
vt 0.151653 0.427213
vt 0.080575 0.464061
vt 0.117487 0.629209
vt 0.067986 0.107571
vt 0.065810 0.512007
vt 0.099976 0.310011
vt 0.000000 0.000000
vt 0.000000 0.000000
vt 0.000000 0.000000
vt 0.117487 0.629209
vt 0.080290 0.182154
vt 0.151653 0.427213
vt 0.046124 0.384150
vt 0.033820 0.309567
vt 0.151653 0.427213
vt 0.000000 0.000000
vt 0.000000 0.000000
vt 0.000000 0.000000
vt 0.000000 0.000000
vt 0.065810 0.512007
vt 0.099976 0.310011
vt 0.852984 0.158951
vt 0.911617 0.629209
vt 0.827950 0.309567
vt 0.865288 0.233534
vt 0.000000 0.000000
vt 0.000000 0.000000
vt 0.000000 0.000000
vt 0.874705 0.464061
vt 0.000000 0.000000
vt 0.000000 0.000000
vt 0.000000 0.000000
vt 0.000000 0.000000
vt 0.032005 0.828239
vt 0.032005 0.027397
vt 0.967995 0.027397
vt 0.967995 0.828238
vn 0.0000 -1.0000 0.0000
vn 0.0000 1.0000 0.0000
vn 1.0000 0.0000 0.0000
vn -0.0000 -0.0000 1.0000
vn -1.0000 0.0000 -0.0000
vn 0.0000 0.0000 -1.0000
usemtl Material
s off
f 9/1/1 10/2/1 11/3/1 12/4/1
f 13/5/2 16/6/2 15/7/2 14/8/2
f 9/1/3 13/5/3 14/8/3 10/2/3
f 10/2/4 14/8/4 15/7/4 11/3/4
f 11/3/5 15/7/5 16/6/5 12/4/5
f 13/5/6 9/1/6 12/4/6 16/6/6
f 17/9/1 18/10/1 19/11/1 20/12/1
f 21/13/2 24/14/2 23/15/2 22/16/2
f 17/9/3 21/13/3 22/16/3 18/10/3
f 18/10/4 22/16/4 23/15/4 19/11/4
f 19/11/5 23/15/5 24/14/5 20/12/5
f 21/13/6 17/9/6 20/12/6 24/14/6
f 25/17/4 26/18/4 27/19/4 28/20/4
f 29/21/6 32/22/6 31/23/6 30/24/6
f 25/17/3 29/21/3 30/24/3 26/18/3
f 26/18/2 30/24/2 31/23/2 27/19/2
f 27/19/5 31/23/5 32/22/5 28/20/5
f 29/21/1 25/17/1 28/20/1 32/22/1
f 33/25/5 34/26/5 35/27/5 36/28/5
f 37/29/3 40/30/3 39/31/3 38/32/3
f 33/25/6 37/29/6 38/32/6 34/26/6
f 34/26/1 38/32/1 39/31/1 35/27/1
f 35/27/4 39/31/4 40/30/4 36/28/4
f 37/29/2 33/25/2 36/28/2 40/30/2
f 41/33/5 42/34/5 43/35/5 44/36/5
f 45/37/3 48/38/3 47/39/3 46/40/3
f 41/33/6 45/37/6 46/40/6 42/34/6
f 42/34/1 46/40/1 47/39/1 43/35/1
f 43/35/4 47/39/4 48/38/4 44/36/4
f 45/37/2 41/33/2 44/36/2 48/38/2
f 81/41/4 80/42/4 52/43/4 76/44/4
f 53/45/5 54/46/5 55/47/5 56/48/5
f 57/49/3 60/50/3 59/51/3 58/52/3
f 53/45/6 57/49/6 58/52/6 54/46/6
f 54/46/1 58/52/1 59/51/1 55/47/1
f 55/47/4 59/51/4 60/50/4 56/48/4
f 57/49/2 53/45/2 56/48/2 60/50/2
f 61/53/3 63/54/3 64/55/3 62/56/3
f 33/25/2 37/29/2 70/57/2 69/58/2
f 40/30/2 36/28/2 71/59/2 72/60/2
f 62/56/6 64/55/6 74/61/6 73/62/6
f 82/63/4 81/41/4 76/44/4 78/64/4
f 79/65/4 82/63/4 78/64/4 50/66/4
f 83/67/4 86/68/4 82/63/4 79/65/4
f 85/69/1 81/41/1 87/70/1 88/71/1
f 85/69/4 84/72/4 80/42/4 81/41/4
f 75/73/4 51/74/4 84/72/4 85/69/4
f 77/75/4 75/73/4 85/69/4 86/68/4
f 49/76/4 77/75/4 86/68/4 83/67/4
f 90/77/1 89/78/1 91/79/1 92/80/1
f 85/81/2 81/82/2 114/83/2 113/84/2
f 87/85/4 91/86/4 92/87/4 88/88/4
f 85/69/5 88/71/5 92/89/5 90/90/5
f 87/70/3 81/41/3 89/91/3 91/92/3
f 94/93/2 96/94/2 95/95/2 93/96/2
f 98/97/1 97/98/1 99/99/1 100/100/1
f 98/101/4 94/102/4 117/103/4 119/104/4
f 95/105/4 99/99/4 100/100/4 96/106/4
f 94/107/5 96/108/5 100/109/5 98/110/5
f 95/105/3 93/111/3 97/98/3 99/99/3
f 90/77/5 92/80/5 96/94/5 94/93/5
f 92/80/4 91/79/4 95/95/4 96/94/4
f 91/79/3 89/78/3 93/96/3 95/95/3
f 101/112/1 102/113/1 103/114/1 104/115/1
f 102/116/3 106/117/3 105/118/3 101/119/3
f 108/120/3 110/121/3 109/122/3 107/123/3
f 101/124/2 102/125/2 108/120/2 107/123/2
f 109/126/1 110/127/1 112/128/1 111/129/1
f 113/130/4 114/131/4 116/132/4 115/133/4
f 81/82/5 89/134/5 116/135/5 114/83/5
f 90/136/3 85/81/3 113/84/3 115/137/3
f 89/78/1 90/77/1 115/138/1 116/139/1
f 117/140/4 118/141/4 120/142/4 119/143/4
f 97/144/6 98/145/6 119/146/6 120/147/6
f 94/148/4 93/149/4 118/150/4 117/151/4
f 93/152/6 97/144/6 120/147/6 118/153/6
f 121/154/3 123/155/3 124/156/3 122/157/3
f 121/154/5 123/155/5 140/158/5 139/159/5
f 126/160/3 125/161/3 127/162/3 128/163/3
f 89/91/4 125/164/4 131/165/4 129/166/4
f 130/167/3 129/168/3 133/169/3 134/170/3
f 93/96/4 89/78/4 129/171/4 130/172/4
f 127/173/4 93/111/4 130/174/4 132/175/4
f 125/176/4 127/177/4 132/178/4 131/179/4
f 134/170/6 133/169/6 135/180/6 136/181/6
f 132/175/2 130/174/2 134/182/2 136/183/2
f 131/179/5 132/178/5 136/181/5 135/180/5
f 129/166/1 131/165/1 135/184/1 133/185/1
f 127/162/3 125/161/3 135/186/3 136/187/3
f 89/78/4 93/96/4 127/173/4 125/161/4
f 138/188/4 137/189/4 139/190/4 140/191/4
f 90/90/2 121/192/2 139/193/2 137/194/2
f 94/148/3 90/195/3 137/189/3 138/188/3
f 123/196/1 94/197/1 138/198/1 140/199/1
usemtl Floor
f 65/200/2 68/201/2 67/202/2 66/203/2
